{
    "asset" : {
        "generator" : "Khronos glTF Blender I/O v1.5.17",
        "version" : "2.0"
    },
    "scene" : 0,
    "scenes" : [
        {
            "name" : "Scene",
            "nodes" : [
                0
            ]
        }
    ],
    "nodes" : [
        {
            "mesh" : 0,
            "name" : "HEAD",
            "rotation" : [
                0.7071068286895752,
                0,
                0,
                0.7071067094802856
            ],
            "scale" : [
                1.9129376411437988,
                1.9129376411437988,
                1.9129376411437988
            ],
            "translation" : [
                0,
                2.396502733230591,
                0
            ]
        }
    ],
    "materials" : [
        {
            "doubleSided" : true,
            "name" : "PM3D_Sphere3D_6",
            "pbrMetallicRoughness" : {
                "baseColorFactor" : [
                    0.25177833437919617,
                    0.9158955812454224,
                    0.5727357864379883,
                    1
                ],
                "roughnessFactor" : 0.27894192934036255
            }
        }
    ],
    "meshes" : [
        {
            "name" : "PM3D_Sphere3D_6",
            "primitives" : [
                {
                    "attributes" : {
                        "POSITION" : 0,
                        "NORMAL" : 1
                    },
                    "indices" : 2,
                    "material" : 0
                }
            ]
        }
    ],
    "accessors" : [
        {
            "bufferView" : 0,
            "componentType" : 5126,
            "count" : 32880,
            "max" : [
                0.9665488004684448,
                1.243538737297058,
                2.465855121612549
            ],
            "min" : [
                -0.9665488004684448,
                -1.17434823513031,
                -1.0520694255828857
            ],
            "type" : "VEC3"
        },
        {
            "bufferView" : 1,
            "componentType" : 5126,
            "count" : 32880,
            "type" : "VEC3"
        },
        {
            "bufferView" : 2,
            "componentType" : 5123,
            "count" : 103224,
            "type" : "SCALAR"
        }
    ],
    "bufferViews" : [
        {
            "buffer" : 0,
            "byteLength" : 394560,
            "byteOffset" : 0
        },
        {
            "buffer" : 0,
            "byteLength" : 394560,
            "byteOffset" : 394560
        },
        {
            "buffer" : 0,
            "byteLength" : 206448,
            "byteOffset" : 789120
        }
    ],
    "buffers" : [
        {
            "byteLength" : 995568,
            "uri" : "data:application/octet-stream;base64,"
        }
    ]
}
